<svg id="Layer_1" data-name="Layer 1" xmlns="http://www.w3.org/2000/svg" viewBox="0 0 150 65"><defs><style>.cls-1{fill:#fff;}</style></defs><title>Artboard 1</title><g id="Shape"><path class="cls-1" d="M42.12,28.85H33.86V25H35V22.23H33.86V19.45H35V16.68H33.86V13.9H35V11.13H33.86V8.35H35V6.42H33.86V4.5h8.26V8.35H41v2.78h1.13V13.9H41v2.78h1.13v2.77H41v2.78h1.13V25H41v1.93h1.13Z"/><path class="cls-1" d="M116.14,28.86,107.74,4.5H99.23l-8.4,24.36h6.48L103.49,11l2.65,7.67H104l-2.86,2.12h2.13l-2.86,2.12h2.13L99.65,25h8.69l1.33,3.86Z"/><path class="cls-1" d="M89.39,4.5H78a9.4,9.4,0,0,0-9.39,9.39v5.57A9.4,9.4,0,0,0,78,28.85H89.39V27.56l-3.29-.87,3.29-.43V25l-3.29-.44,3.29-.86v-1.3H78.26a3.17,3.17,0,0,1-3.17-3.16V14.15A3.17,3.17,0,0,1,78.26,11H89.39V9.68L86.1,8.82l3.29-.43V7.09L86.1,6.66l3.29-.86V4.5Z"/><path class="cls-1" d="M66.4,13.89h0A9.4,9.4,0,0,0,57,4.5H46V28.86h6.48V11H60v7.67h-6.2v6.48H57a9.4,9.4,0,0,0,9.39-9.39V13.89Z"/></g><g id="Page-1"><g id="Group"><g id="Shape-2" data-name="Shape"><path class="cls-1" d="M7.09,47c0,.27-.12.39-.39.39H5.14c-.27,0-.39-.12-.39-.39V39.11c0-.27.12-.39.39-.39H6.7c.27,0,.39.12.39.39V47Z"/><path class="cls-1" d="M14.36,47.38a.64.64,0,0,1-.6-.34l-2.95-4.79V47c0,.27-.12.39-.39.39H9c-.27,0-.39-.12-.39-.39V39.11c0-.27.12-.39.39-.39h1.54a.63.63,0,0,1,.6.34l2.94,4.78V39.11c0-.27.12-.39.39-.39h1.48c.27,0,.39.12.39.39V47c0,.27-.12.39-.39.39Z"/><path class="cls-1" d="M17.68,45.46c.05-.27.22-.32.43-.23a6.9,6.9,0,0,0,2.25.6c.57,0,1-.23,1-.85s-.4-.88-1.14-1.15c-1.45-.53-2.76-1-2.76-2.76s1.5-2.51,3.24-2.51a7,7,0,0,1,2.11.35.39.39,0,0,1,.3.51l-.22,1c-.05.26-.21.31-.46.22a5.74,5.74,0,0,0-1.72-.36c-.58,0-1,.19-1,.82s.7.86,1.52,1.18c1.09.42,2.37,1,2.37,2.61a2.74,2.74,0,0,1-3,2.66A7.49,7.49,0,0,1,17.77,47a.48.48,0,0,1-.29-.56l.2-1Z"/><path class="cls-1" d="M24,39.11c0-.27.12-.39.39-.39H30.6c.28,0,.39.12.39.39v1c0,.27-.11.39-.39.39h-2V47c0,.27-.11.39-.39.39H26.69c-.27,0-.39-.12-.39-.39V40.46H24.38c-.27,0-.39-.12-.39-.39v-1Z"/><path class="cls-1" d="M34.2,47c0,.27-.12.39-.39.39H32.25c-.27,0-.39-.12-.39-.39V39.11c0-.27.12-.39.39-.39h1.56c.27,0,.39.12.39.39V47Z"/><path class="cls-1" d="M35.06,39.11c0-.27.12-.39.39-.39h6.23c.27,0,.38.12.38.39v1c0,.27-.11.39-.38.39h-2V47c0,.27-.11.39-.38.39H37.76c-.27,0-.39-.12-.39-.39V40.46H35.45c-.27,0-.39-.12-.39-.39v-1Z"/><path class="cls-1" d="M46.33,47.52c-2.49,0-3.45-1.06-3.45-3.37v-5c0-.27.12-.39.39-.39h1.58c.27,0,.39.12.39.39v5c0,1,.09,1.63,1.11,1.63s1.09-.56,1.09-1.63v-5c0-.27.12-.39.39-.39h1.59c.27,0,.38.12.38.39v5c0,2.25-.84,3.37-3.47,3.37Z"/><path class="cls-1" d="M50.62,39.11c0-.27.12-.39.39-.39h6.22c.28,0,.39.12.39.39v1c0,.27-.11.39-.39.39h-2V47c0,.27-.11.39-.39.39H53.32c-.27,0-.39-.12-.39-.39V40.46H51c-.27,0-.39-.12-.39-.39v-1Z"/><path class="cls-1" d="M65.61,43.05c0,2.26-.64,4.47-3.84,4.47S58,45.32,58,43.05s.67-4.49,3.83-4.49,3.8,2.21,3.8,4.49Zm-2.28,0c0-1.5-.19-2.72-1.53-2.72s-1.55,1.22-1.55,2.72.21,2.64,1.55,2.64,1.53-1.16,1.53-2.64Z"/><path class="cls-1" d="M69.24,39.32c0-.28.11-.41.4-.47a15.29,15.29,0,0,1,2.53-.22c1.79,0,3.52.46,3.52,2.95,0,2-1.33,2.86-3.08,2.86a6.18,6.18,0,0,1-1-.09V47c0,.27-.12.39-.39.39H69.63c-.28,0-.39-.12-.39-.39V39.32Zm2.33,3.5a5.72,5.72,0,0,0,.58,0c.71,0,1.29-.21,1.29-1.2s-.66-1.38-1.27-1.38a3.73,3.73,0,0,0-.6.05v2.51Z"/><path class="cls-1" d="M84,43.05c0,2.26-.64,4.47-3.84,4.47s-3.79-2.2-3.79-4.47.67-4.49,3.83-4.49S84,40.77,84,43.05Zm-2.28,0c0-1.5-.19-2.72-1.53-2.72s-1.55,1.22-1.55,2.72.21,2.64,1.55,2.64,1.53-1.16,1.53-2.64Z"/><path class="cls-1" d="M91,47c0,.27-.12.39-.39.39h-5c-.27,0-.38-.12-.38-.39V39.11c0-.27.11-.39.38-.39h1.56c.27,0,.39.12.39.39v6.51h3c.27,0,.39.11.39.39v1Z"/><path class="cls-1" d="M94.17,47c0,.27-.12.39-.39.39H92.22c-.27,0-.39-.12-.39-.39V39.11c0-.27.12-.39.39-.39h1.56c.27,0,.39.12.39.39V47Z"/><path class="cls-1" d="M95,39.11c0-.27.11-.39.38-.39h6.23c.27,0,.39.12.39.39v1c0,.27-.12.39-.39.39h-2V47c0,.27-.12.39-.39.39H97.73c-.27,0-.39-.12-.39-.39V40.46H95.42c-.27,0-.38-.12-.38-.39v-1Z"/><path class="cls-1" d="M109,47c0,.27-.12.39-.39.39h-5.36c-.27,0-.38-.12-.38-.39V39.11c0-.27.11-.39.38-.39h5.24c.27,0,.39.12.39.39v1c0,.27-.12.39-.39.39h-3.29V42h3.08c.28,0,.39.11.39.39v.93c0,.27-.11.39-.39.39h-3.08v1.87h3.41c.27,0,.39.11.39.38v1Zm-3.78-9.05c-.25.11-.4,0-.51-.22l-.22-.53a.38.38,0,0,1,.18-.56l2.05-1.23c.23-.13.38-.09.49.16l.48,1c.1.25,0,.39-.21.5l-2.26.85Z"/><path class="cls-1" d="M112.28,43c0,2.28,1,2.77,2.36,2.77a12.33,12.33,0,0,0,1.28-.09c.27,0,.39.08.4.35l.05.89a.38.38,0,0,1-.36.46,13.15,13.15,0,0,1-1.84.17c-2.31,0-4.26-.95-4.28-4.52,0-3.41,2.19-4.46,4.37-4.46a6.79,6.79,0,0,1,1.87.29c.27.08.38.23.32.49l-.19.86c-.05.26-.22.34-.47.27a5.77,5.77,0,0,0-1.36-.22c-1.21,0-2.15.63-2.15,2.74Z"/><path class="cls-1" d="M123.4,47.38a.62.62,0,0,1-.59-.34l-3-4.79V47c0,.27-.12.39-.39.39H118c-.27,0-.39-.12-.39-.39V39.11c0-.27.12-.39.39-.39h1.54a.62.62,0,0,1,.6.34l2.94,4.78V39.11c0-.27.12-.39.39-.39H125c.27,0,.39.12.39.39V47c0,.27-.12.39-.39.39Z"/><path class="cls-1" d="M129.2,47c0,.27-.12.39-.39.39h-1.56c-.27,0-.39-.12-.39-.39V39.11c0-.27.12-.39.39-.39h1.56c.27,0,.39.12.39.39V47Z"/><path class="cls-1" d="M132.8,43c0,2.28,1,2.77,2.36,2.77a12.33,12.33,0,0,0,1.28-.09c.28,0,.39.08.41.35l.05.89a.38.38,0,0,1-.36.46,13.45,13.45,0,0,1-1.85.17c-2.3,0-4.26-.95-4.27-4.52,0-3.41,2.19-4.46,4.36-4.46a6.73,6.73,0,0,1,1.87.29c.27.08.38.23.33.49l-.2.86c-.05.26-.22.34-.47.27a5.68,5.68,0,0,0-1.36-.22c-1.2,0-2.15.63-2.15,2.74Z"/><path class="cls-1" d="M145.25,43.05c0,2.26-.64,4.47-3.84,4.47s-3.79-2.2-3.79-4.47.66-4.49,3.83-4.49,3.8,2.21,3.8,4.49Zm-2.29,0c0-1.5-.18-2.72-1.53-2.72s-1.54,1.22-1.54,2.72.21,2.64,1.54,2.64S143,44.53,143,43.05Z"/><path class="cls-1" d="M7.72,60.44a14.51,14.51,0,0,1-2.62-.2.38.38,0,0,1-.35-.44V52.28a.42.42,0,0,1,.42-.45,18.8,18.8,0,0,1,2.62-.21c2.21,0,4.07.76,4.07,4.47s-2.1,4.35-4.14,4.35ZM7.09,58.6h.5c1.6,0,2-1,2-2.6s-.28-2.67-1.78-2.67c-.2,0-.45,0-.68,0V58.6Z"/><path class="cls-1" d="M20.43,56c0,2.26-.64,4.48-3.84,4.48S12.8,58.28,12.8,56s.66-4.48,3.83-4.48,3.8,2.2,3.8,4.48Zm-2.28,0c0-1.5-.19-2.72-1.53-2.72S15.07,54.51,15.07,56s.21,2.65,1.55,2.65,1.53-1.17,1.53-2.65Z"/><path class="cls-1" d="M26.16,56c0,2.28,1.05,2.77,2.36,2.77a12.33,12.33,0,0,0,1.28-.09c.27,0,.39.08.4.35l.05.9a.37.37,0,0,1-.36.45,11.79,11.79,0,0,1-1.84.17c-2.31,0-4.27-1-4.28-4.51s2.19-4.46,4.37-4.46a6.84,6.84,0,0,1,1.87.28c.27.08.38.24.32.5l-.19.85c-.05.26-.22.34-.47.28a5.28,5.28,0,0,0-1.36-.23c-1.21,0-2.15.64-2.15,2.74Z"/><path class="cls-1" d="M36.94,60.35a.47.47,0,0,1-.5-.38l-.51-1.61H33.69L33.2,60a.48.48,0,0,1-.51.38H31.1c-.28,0-.35-.12-.26-.37l2.66-7.93a.49.49,0,0,1,.51-.37h1.65a.48.48,0,0,1,.51.38L38.76,60c.08.26,0,.38-.27.38ZM34.1,50.89c-.25.11-.4,0-.51-.22l-.22-.53a.38.38,0,0,1,.18-.56l2.05-1.23c.23-.13.38-.09.49.16l.48,1c.1.25,0,.39-.21.5l-2.26.85Zm.72,3.23L34.2,56.7h1.23l-.61-2.58Z"/><path class="cls-1" d="M38.52,52.05c-.09-.25,0-.37.26-.37h1.55a.47.47,0,0,1,.5.38l1.57,5.15L44,52.06a.46.46,0,0,1,.5-.38H46c.27,0,.35.12.26.37L43.63,60a.49.49,0,0,1-.52.37H41.69a.49.49,0,0,1-.52-.37l-2.65-7.93Z"/><path class="cls-1" d="M52.14,60.35a.48.48,0,0,1-.51-.38l-.5-1.61H48.88L48.39,60a.47.47,0,0,1-.5.38h-1.6c-.27,0-.35-.12-.26-.37l2.66-7.93a.5.5,0,0,1,.52-.37h1.64a.47.47,0,0,1,.51.38L54,60c.08.26,0,.38-.27.38ZM50,54.12l-.62,2.58h1.23L50,54.12Z"/><path class="cls-1" d="M57.76,60.44a14.3,14.3,0,0,1-2.61-.2c-.25,0-.35-.17-.35-.44V52.28a.41.41,0,0,1,.41-.45,18.8,18.8,0,0,1,2.62-.21c2.22,0,4.07.76,4.07,4.47s-2.1,4.35-4.14,4.35Zm-.63-1.84h.5c1.6,0,2-1,2-2.6s-.28-2.67-1.77-2.67c-.21,0-.46,0-.69,0V58.6Z"/><path class="cls-1" d="M70.47,56c0,2.26-.64,4.48-3.84,4.48S62.85,58.28,62.85,56s.66-4.48,3.82-4.48,3.8,2.2,3.8,4.48Zm-2.28,0c0-1.5-.18-2.72-1.53-2.72S65.11,54.51,65.11,56s.21,2.65,1.55,2.65,1.53-1.17,1.53-2.65Z"/><path class="cls-1" d="M80.23,60c0,.27-.12.38-.39.38H74.49c-.28,0-.39-.11-.39-.38V52.07c0-.27.11-.39.39-.39h5.24c.27,0,.38.12.38.39v1c0,.27-.11.39-.38.39h-3.3V55h3.09c.27,0,.39.12.39.39v.93c0,.28-.12.39-.39.39H76.43v1.87h3.41c.27,0,.39.12.39.39v1Z"/><path class="cls-1" d="M86.86,60.44a14.34,14.34,0,0,1-2.62-.2c-.25,0-.35-.17-.35-.44V52.28a.41.41,0,0,1,.41-.45,18.93,18.93,0,0,1,2.62-.21c2.22,0,4.07.76,4.07,4.47s-2.1,4.35-4.13,4.35Zm-.64-1.84h.51c1.59,0,2-1,2-2.6s-.28-2.67-1.77-2.67c-.21,0-.46,0-.69,0V58.6Z"/><path class="cls-1" d="M99.56,56c0,2.26-.63,4.48-3.84,4.48S91.94,58.28,91.94,56s.66-4.48,3.82-4.48,3.8,2.2,3.8,4.48Zm-2.28,0c0-1.5-.18-2.72-1.53-2.72S94.21,54.51,94.21,56s.2,2.65,1.54,2.65,1.53-1.17,1.53-2.65Z"/><path class="cls-1" d="M108.3,60.35a.48.48,0,0,1-.51-.38l-.5-1.61H105L104.55,60a.47.47,0,0,1-.5.38h-1.6c-.27,0-.35-.12-.26-.37l2.66-7.93a.5.5,0,0,1,.52-.37H107a.47.47,0,0,1,.5.38L110.11,60c.08.26,0,.38-.27.38Zm-2.13-6.23-.62,2.58h1.23l-.61-2.58Z"/><path class="cls-1" d="M109.88,52.05c-.09-.25,0-.37.26-.37h1.54a.48.48,0,0,1,.51.38l1.56,5.15,1.56-5.15a.47.47,0,0,1,.51-.38h1.55c.27,0,.35.12.26.37L115,60a.5.5,0,0,1-.52.37H113a.5.5,0,0,1-.52-.37l-2.64-7.93Z"/><path class="cls-1" d="M124.59,60c0,.27-.11.38-.38.38h-5.36c-.27,0-.39-.11-.39-.38V52.07c0-.27.12-.39.39-.39h5.24c.27,0,.39.12.39.39v1c0,.27-.12.39-.39.39H120.8V55h3.08c.27,0,.39.12.39.39v.93c0,.28-.12.39-.39.39H120.8v1.87h3.41c.27,0,.38.12.38.39v1Z"/></g></g></g></svg>